<mxfile host="app.diagrams.net" modified="2024-05-23T07:06:25.888Z" agent="Mozilla/5.0 (Macintosh; Intel Mac OS X 10_15_7) AppleWebKit/605.1.15 (KHTML, like Gecko) Version/17.5 Safari/605.1.15" version="24.4.4" etag="KGKgtgHCdizUqKpr8YDI" type="github">
  <diagram name="Seite-1" id="0AaTrXrd4_qpG6ptn9_r">
    <mxGraphModel>
      <root>
        <mxCell id="0" />
        <mxCell id="1" parent="0" />
      </root>
    </mxGraphModel>
  </diagram>
</mxfile>
